<?xml version="1.0" standalone="no"?>
<!DOCTYPE svg PUBLIC "-//W3C//DTD SVG 20010904//EN"
 "http://www.w3.org/TR/2001/REC-SVG-20010904/DTD/svg10.dtd">
<svg version="1.0" xmlns="http://www.w3.org/2000/svg"
 width="243.000000pt" height="230.000000pt" viewBox="0 0 243.000000 230.000000"
 preserveAspectRatio="xMidYMid meet">

<g transform="translate(0.000000,230.000000) scale(0.100000,-0.100000)"
fill="#000000" stroke="none">
<path d="M0 1150 l0 -1150 1215 0 1215 0 0 1150 0 1150 -1215 0 -1215 0 0
-1150z m2262 -228 c31 -30 33 -37 33 -98 0 -61 -2 -67 -33 -95 l-32 -29 -390
0 -390 0 -31 28 c-63 56 -47 186 26 218 24 11 111 13 407 11 l378 -2 32 -33z"/>
</g>
</svg>
